<svg width="496" height="496" viewBox="0 0 496 496" fill="none" xmlns="http://www.w3.org/2000/svg">
<path d="M480 64C488.824 64 496 56.824 496 48V15.968L492.472 13.592C479.248 4.696 463.872 0 448 0C419.168 0 393.088 15.2 378.792 40H368C368 22.352 353.648 8 336 8C326.392 8 317.872 12.336 312 19.056C306.128 12.336 297.608 8 288 8C278.392 8 269.872 12.336 264 19.056C258.128 12.336 249.608 8 240 8C230.392 8 221.872 12.336 216 19.056C210.128 12.336 201.608 8 192 8C174.352 8 160 22.352 160 40H117.208C102.912 15.2 76.832 0 48 0C32.128 0 16.752 4.696 3.528 13.592L0 15.968V48C0 56.824 7.176 64 16 64H56V96H16C7.176 96 0 103.176 0 112V144.032L3.528 146.408C16.752 155.304 32.128 160 48 160C53.616 160 59.064 159.24 64.408 158.128L55.672 166.864L96.448 207.648C93.848 213.056 91.552 218.528 89.6 224H32V336H89.592C91.544 341.464 93.832 346.928 96.44 352.352L55.664 393.136L134.848 472.328L175.632 431.544C181.064 434.16 186.528 436.448 191.992 438.4V496H303.992V438.408C309.456 436.456 314.92 434.168 320.352 431.552L361.136 472.336L440.32 393.144L399.544 352.36C402.152 346.936 404.44 341.464 406.392 336.008H464V224H406.408C404.456 218.528 402.16 213.056 399.56 207.648L440.336 166.864L431.632 158.152C436.952 159.264 442.4 160 448 160C463.872 160 479.248 155.304 492.472 146.408L496 144.032V112C496 103.176 488.824 96 480 96H440V64H480ZM320 40C320 31.176 327.176 24 336 24C344.824 24 352 31.176 352 40V48V136C352 144.824 344.824 152 336 152C327.176 152 320 144.824 320 136V40ZM272 40C272 31.176 279.176 24 288 24C296.824 24 304 31.176 304 40V136C304 144.824 296.824 152 288 152C279.176 152 272 144.824 272 136V40ZM224 40C224 31.176 231.176 24 240 24C248.824 24 256 31.176 256 40V136C256 144.824 248.824 152 240 152C231.176 152 224 144.824 224 136V40ZM176 100V40C176 31.176 183.176 24 192 24C200.824 24 208 31.176 208 40V136C208 142.976 203.48 149.016 197.096 151.16L176 132.408V100ZM234.688 205.976L245.312 194.016L209.792 162.44C212.104 160.88 214.256 159.12 216.08 157.032C221.952 163.704 230.44 168 240 168C249.608 168 258.128 163.664 264 156.944C269.872 163.664 278.392 168 288 168C297.608 168 306.128 163.664 312 156.944C317.872 163.664 326.392 168 336 168C341.856 168 347.272 166.304 352 163.552V196.688L312 236.688V312H296V328H312V361.808C294.328 375.656 272.144 384 248 384C223.856 384 201.672 375.656 184 361.808V328H280V312H184V236.368L128.192 187.536C122.984 182.984 120 176.4 120 169.48V100C120 88.976 128.968 80 140 80C151.032 80 160 88.976 160 100V136V139.592L234.688 205.976ZM339.904 231.408C347.8 246.312 352 262.872 352 280C352 305.208 342.976 328.336 328 346.36V243.312L339.904 231.408ZM168 243.632V346.36C153.024 328.336 144 305.208 144 280C144 263.456 147.928 247.208 155.4 232.608L168 243.632ZM48 144C36.712 144 25.728 141.024 16 135.352V112H72V48H16V24.648C25.728 18.976 36.712 16 48 16C72.408 16 94.352 29.632 105.264 51.568L107.48 56H160V70.096C154.272 66.256 147.4 64 140 64C120.152 64 104 80.152 104 100V110.592C92.736 131.216 71.568 144 48 144ZM380 204.568L382.728 209.776C386.968 217.896 390.44 226.176 393.024 234.4L394.792 240H448V320H394.792L393.024 325.6C390.448 333.784 386.984 342.072 382.72 350.232L380 355.44L417.704 393.144L361.144 449.712L323.432 412L318.232 414.72C310.064 418.984 301.784 422.448 293.608 425.016L288.008 426.776V480H208V426.784L202.4 425.024C194.224 422.456 185.936 418.992 177.776 414.728L172.576 412.008L134.864 449.712L78.304 393.144L116.008 355.44L113.288 350.232C109.024 342.072 105.56 333.784 102.984 325.6L101.208 320H48V240H101.208L102.976 234.4C105.56 226.176 109.032 217.896 113.272 209.776L116 204.568L78.296 166.864L104 141.16V169.48C104 181.008 108.976 191.984 117.664 199.584L143.096 221.84C133.248 239.576 128 259.576 128 280C128 346.168 181.832 400 248 400C314.168 400 368 346.168 368 280C368 258.576 362.384 237.888 351.704 219.608L368 203.312V136V120H370.848L417.704 166.864L380 204.568ZM480 112V135.352C470.272 141.024 459.288 144 448 144C423.592 144 401.648 130.368 390.736 108.432L388.52 104H368V56H388.52L390.728 51.568C401.648 29.632 423.592 16 448 16C459.288 16 470.272 18.976 480 24.648V48H424V112H480Z" fill="#FF0000"/>
</svg>
