<svg width="512" height="512" viewBox="0 0 512 512" fill="none" xmlns="http://www.w3.org/2000/svg">
<path d="M507.448 108.594C504.604 106.594 500.958 106.104 497.688 107.313L410.73 138.938C399.949 142.855 391.365 150.751 386.563 161.167C385.663 163.12 385.072 165.149 384.48 167.175C369.548 162.93 341.798 154.064 314.22 139.855C272.547 118.382 240.71 128.988 213.404 149.816C199.568 150.088 180.498 151.724 161.752 153.376C149.794 154.431 138.493 155.402 129.329 155.961C129.104 150.457 127.816 144.995 125.44 139.835C120.638 129.418 112.055 121.522 101.273 117.606L14.313 85.979C11.053 84.781 7.386 85.271 4.553 87.26C1.698 89.261 0 92.521 0 96V309.333C0 315.229 4.771 320 10.667 320H41.823C55.074 320 67.402 313.75 75.371 303.658C79.616 306.886 84.644 310.666 89.917 314.625C102.365 323.99 115.99 334.208 121.969 339.219C161.688 372.469 209.438 408.375 218.948 414.625C227.833 420.458 243.833 426.667 256 426.667C260.76 426.667 272.75 426.667 281.167 419.552C289.844 422.958 299.198 422.792 307.896 418.958C316.573 415.135 323.594 407.927 327.677 399.166C336.01 400.874 345.583 399.624 354.26 395.27C362.395 391.197 368.385 385.03 371.593 377.822C379.301 378.53 387.531 376.02 394.895 370.384C405.417 362.341 410.235 350.463 408.872 338.745L435.929 323.776C443.853 334.517 456.447 341.332 470.176 341.332H501.332C507.228 341.332 511.999 336.561 511.999 330.665V117.334C512 113.854 510.302 110.594 507.448 108.594ZM61.802 284.823C58.698 293.104 50.667 298.667 41.823 298.667H21.333V111.229L93.979 137.646C99.375 139.615 103.667 143.563 106.062 148.771C108.468 153.979 108.677 159.813 106.666 165.177L61.802 284.823ZM381.948 353.438C378.333 356.209 373.271 357.751 371.021 355.501C370.906 355.386 370.728 355.397 370.61 355.287C370.406 355.098 370.305 354.843 370.084 354.667C362.459 348.646 328.292 313.688 307.178 291.667C303.105 287.407 296.345 287.25 292.105 291.344C287.845 295.417 287.699 302.167 291.782 306.417C296.738 311.59 336.522 353.025 352.445 367.516C351.256 372.2 346.914 375.092 344.709 376.198C337.876 379.625 330.751 379.052 328.084 376.573C328.005 376.499 327.887 376.503 327.805 376.431C327.675 376.315 327.617 376.152 327.479 376.042C314.687 365.823 282.594 331.719 275.333 323.823C271.343 319.479 264.604 319.208 260.26 323.188C255.927 327.178 255.635 333.928 259.625 338.261C259.975 338.64 291.427 372.567 309.092 388.326C307.356 393.314 303.819 397.445 299.281 399.448C295.932 400.936 290.694 401.699 284.709 397.276C269.391 384.288 238.65 351.565 232.604 345.094C228.594 340.781 221.823 340.563 217.531 344.584C213.229 348.605 213 355.355 217.021 359.657C224.189 367.329 245.376 389.785 261.482 404.99C259.683 405.209 257.794 405.334 256 405.334C248.937 405.334 236.802 400.824 230.667 396.792C223.188 391.875 176.229 356.834 135.677 322.875C129.542 317.729 115.542 307.198 102.729 297.573C95.862 292.418 89.535 287.665 84.872 284.078L124.81 177.562C135.177 177.109 148.998 175.914 163.625 174.624C171.898 173.895 180.18 173.184 188.094 172.568C175.93 185.055 157.845 207.42 160.229 228.384C161.323 237.926 166.542 245.874 175.344 251.374C192.771 262.28 225.032 253.134 240.573 234.02C250.604 232.572 257.386 230.01 264.781 226.343C277.281 238.093 294.041 251.906 311.646 266.416C342.292 291.666 377.031 320.291 386.219 336.343C391.333 345.271 384.24 351.688 381.948 353.438ZM400.247 319.134C386.035 300.122 355.227 274.685 325.208 249.948C305.198 233.458 286.302 217.885 274.208 205.792C270.875 202.479 265.76 201.729 261.635 203.927C250.77 209.75 245.875 212.156 233.604 213.385C230.333 213.718 227.396 215.531 225.646 218.312C217.281 231.583 194.031 237.895 186.656 233.291C182.468 230.666 181.656 227.999 181.427 225.968C180.396 216.895 189.583 201.187 204.823 185.937C242.563 148.197 269.542 140.812 304.448 158.812C337.612 175.911 370.343 185.579 384.083 189.231C384.48 190.829 384.768 192.443 385.354 194.01L426.771 304.461L400.247 319.134ZM490.667 320H470.177C461.333 320 453.302 314.437 450.198 306.156L405.333 186.521C403.323 181.146 403.531 175.313 405.937 170.104C408.333 164.896 412.625 160.948 418.02 158.979L490.666 132.562V320H490.667Z" fill="currentColor"/>
</svg>
