<svg width="512" height="512" viewBox="0 0 512 512" fill="none" xmlns="http://www.w3.org/2000/svg">
<g clip-path="url(#clip0)">
<path d="M487.634 436.499C489.736 431.776 490.914 426.554 490.914 421.059V407.001C490.914 385.985 473.816 368.887 452.8 368.887C431.784 368.887 414.686 385.985 414.686 407.001V421.059C414.686 426.562 415.868 431.791 417.976 436.52C412.287 440.651 407.428 445.668 403.6 451.362C399.772 445.668 394.914 440.651 389.226 436.521C391.334 431.792 392.516 426.562 392.516 421.059V407.001C392.516 385.985 375.419 368.887 354.403 368.887C333.387 368.887 316.289 385.985 316.289 407.001V421.059C316.289 426.562 317.471 431.791 319.578 436.52C313.889 440.651 309.03 445.668 305.202 451.363C301.373 445.669 296.515 440.652 290.827 436.521C292.935 431.792 294.117 426.562 294.117 421.059V407.001C294.117 385.985 277.018 368.887 256.002 368.887C234.986 368.887 217.888 385.985 217.888 407.001V421.059C217.888 426.562 219.07 431.791 221.178 436.52C215.489 440.65 210.631 445.668 206.803 451.362C202.974 445.668 198.116 440.651 192.428 436.521C194.536 431.792 195.718 426.562 195.718 421.059V407.001C195.718 389.702 184.129 375.067 168.31 370.428V347.859H178.131C194.574 347.859 207.952 334.481 207.952 318.038V248.663C207.952 212.968 189.057 180.587 158.274 162.801C158.348 161.698 158.399 160.588 158.399 159.466V139.644C158.399 112.271 136.129 90.001 108.757 90.001C81.3837 90.001 59.1138 112.271 59.1138 139.644V159.466C59.1138 160.588 59.1648 161.698 59.2388 162.802C45.3378 170.862 33.5399 182.18 24.8939 195.834C14.8639 211.671 9.56196 229.939 9.56196 248.663V318.038C9.56196 334.481 22.9399 347.859 39.3828 347.859H49.2038V370.227C33.0239 374.632 21.0889 389.445 21.0889 407.001V421.059C21.0889 426.553 22.2669 431.774 24.3679 436.497C9.13596 447.552 0 465.116 0 484.315V502C0 507.523 4.47798 512 9.99996 512H501.999C507.521 512 511.999 507.523 511.999 502V484.315C511.999 465.123 502.862 447.554 487.634 436.499V436.499ZM434.685 407.002C434.685 397.014 442.811 388.888 452.799 388.888C462.787 388.888 470.913 397.014 470.913 407.002V421.06C470.913 431.048 462.787 439.174 452.799 439.174C442.811 439.174 434.685 431.048 434.685 421.06V407.002ZM336.287 407.002C336.287 397.014 344.413 388.888 354.401 388.888C364.389 388.888 372.515 397.014 372.515 407.002V421.06C372.515 431.048 364.389 439.174 354.401 439.174C344.413 439.174 336.287 431.048 336.287 421.06V407.002ZM332.248 452.045C338.496 456.525 346.143 459.173 354.401 459.173C362.665 459.173 370.317 456.521 376.568 452.035C387.191 459.319 393.601 471.254 393.601 484.315V492H315.202V484.315C315.201 471.467 321.746 459.324 332.248 452.045V452.045ZM237.885 407.002C237.885 397.014 246.011 388.888 255.999 388.888C265.988 388.888 274.114 397.014 274.114 407.002V421.06C274.114 431.048 265.988 439.174 255.999 439.174C246.011 439.174 237.885 431.048 237.885 421.06V407.002ZM233.847 452.046C240.095 456.526 247.742 459.174 256 459.174C264.264 459.174 271.916 456.522 278.167 452.036C288.791 459.32 295.201 471.256 295.201 484.316V492.001H216.801V484.316C216.8 471.467 223.346 459.324 233.847 452.046V452.046ZM175.714 407.002V421.06C175.714 431.048 167.588 439.174 157.599 439.174C147.611 439.174 139.485 431.048 139.485 421.06V407.002C139.485 397.014 147.611 388.888 157.599 388.888C167.588 388.888 175.714 397.014 175.714 407.002ZM187.949 318.039C187.949 323.455 183.543 327.86 178.128 327.86H168.307V258.662L187.95 258.663V318.039H187.949ZM187.322 238.663L158.307 238.662C158.306 238.662 158.306 238.662 158.306 238.662C155.654 238.662 153.111 239.716 151.235 241.591C149.36 243.466 148.306 246.01 148.306 248.662V308.039H118.754V208.098C133.404 205.09 145.715 195.602 152.566 182.777C171.828 195.575 184.447 215.871 187.322 238.663V238.663ZM79.1107 139.646C79.1107 123.301 92.4086 110.003 108.754 110.003H108.755C125.1 110.003 138.396 123.301 138.396 139.646V159.468C138.396 175.813 125.099 189.111 108.754 189.111C92.4086 189.111 79.1107 175.813 79.1107 159.468V139.646ZM64.9377 182.773C71.7887 195.6 84.1007 205.089 98.7536 208.098V308.039H69.2007V248.662C69.2007 246.01 68.1467 243.466 66.2717 241.591C64.3957 239.716 61.8518 238.662 59.1998 238.662L30.1839 238.663C33.0549 215.857 45.6708 195.569 64.9377 182.773ZM39.3788 327.86C33.9639 327.86 29.5579 323.454 29.5579 318.039V258.663L49.2008 258.662V327.86H39.3788ZM41.0848 407.002C41.0848 397.014 49.2118 388.888 59.1998 388.888C69.1877 388.888 77.3137 397.014 77.3137 407.002V421.06C77.3137 431.048 69.1877 439.174 59.1998 439.174C49.2118 439.174 41.0848 431.048 41.0848 421.06V407.002ZM98.4006 492H19.9999V484.315C19.9999 471.466 26.5459 459.324 37.0469 452.045C43.2958 456.525 50.9418 459.173 59.1998 459.173C67.4637 459.173 75.1157 456.521 81.3667 452.035C91.9906 459.319 98.4006 471.254 98.4006 484.315V492ZM108.399 451.363C104.571 445.669 99.7126 440.652 94.0246 436.522C96.1326 431.793 97.3146 426.563 97.3146 421.06V407.002C97.3146 389.446 85.3797 374.633 69.2007 370.228V328.039H148.306V370.039C131.767 374.199 119.486 389.191 119.486 407.002V421.06C119.486 426.563 120.668 431.792 122.776 436.521C117.086 440.651 112.228 445.668 108.399 451.363V451.363ZM118.401 484.315C118.401 471.466 124.946 459.324 135.447 452.045C141.695 456.525 149.342 459.173 157.6 459.173C165.864 459.173 173.516 456.521 179.767 452.035C190.391 459.319 196.801 471.255 196.801 484.315V492H118.402V484.315H118.401ZM491.999 492H413.6V484.315C413.6 471.466 420.145 459.324 430.647 452.045C436.895 456.525 444.542 459.173 452.8 459.173C461.064 459.173 468.716 456.521 474.967 452.035C485.591 459.319 492 471.254 492 484.315V492H491.999Z" fill="#FF0000"/>
<path d="M482 0H257.951C241.409 0 227.951 13.4579 227.951 29.9999V94.6946L198.094 111.933C194.98 113.689 192.392 116.259 190.606 119.367C187.95 123.989 187.252 129.368 188.642 134.514C190.033 139.66 193.343 143.957 197.948 146.603L227.952 163.926V228.663C227.952 245.205 241.41 258.663 257.952 258.663H482.001C498.543 258.663 512.001 245.205 512.001 228.663V29.9999C512 13.4579 498.542 0 482 0ZM492 228.664C492 234.178 487.514 238.664 482 238.664H257.951C252.437 238.664 247.951 234.178 247.951 228.664V158.153C247.951 154.58 246.045 151.279 242.951 149.493L207.919 129.354C207.96 129.331 208.002 129.307 208.043 129.283L242.951 109.129C246.045 107.343 247.951 104.042 247.951 100.469V29.9999C247.951 24.4859 252.437 19.9999 257.951 19.9999H482C487.514 19.9999 492 24.4859 492 29.9999V228.664Z" fill="#FF0000"/>
<path d="M461.999 59.3318H322.948C317.426 59.3318 312.948 63.8088 312.948 69.3318C312.948 74.8548 317.426 79.3318 322.948 79.3318H461.999C467.521 79.3318 471.999 74.8548 471.999 69.3318C471.999 63.8088 467.522 59.3318 461.999 59.3318V59.3318Z" fill="#FF0000"/>
<path d="M461.999 99.3317H277.952C272.43 99.3317 267.952 103.809 267.952 109.332C267.952 114.855 272.43 119.332 277.952 119.332H461.999C467.521 119.332 471.999 114.855 471.999 109.332C471.999 103.809 467.522 99.3317 461.999 99.3317Z" fill="#FF0000"/>
<path d="M461.999 139.331H277.952C272.43 139.331 267.952 143.808 267.952 149.331C267.952 154.854 272.43 159.331 277.952 159.331H461.999C467.521 159.331 471.999 154.854 471.999 149.331C471.999 143.808 467.522 139.331 461.999 139.331Z" fill="#FF0000"/>
<path d="M369.976 179.331H277.952C272.43 179.331 267.952 183.808 267.952 189.331C267.952 194.854 272.43 199.331 277.952 199.331H369.976C375.498 199.331 379.976 194.854 379.976 189.331C379.976 183.808 375.499 179.331 369.976 179.331Z" fill="#FF0000"/>
<path d="M277.952 79.3318C283.474 79.3318 287.952 74.8548 287.952 69.3318C287.952 63.8088 283.474 59.3318 277.952 59.3318H277.945C272.423 59.3318 267.949 63.8088 267.949 69.3318C267.949 74.8548 272.429 79.3318 277.952 79.3318Z" fill="#FF0000"/>
</g>
<defs>
<clipPath id="clip0">
<rect width="512" height="512" fill="white"/>
</clipPath>
</defs>
</svg>
