<?xml version="1.0"?>
<svg xmlns="http://www.w3.org/2000/svg" viewBox="0 0 512 512" width="512" height="512" style="fill: #ff0000"><g id="outline"><path d="M91.562,60.656l2.213,1.476a47.533,47.533,0,0,1,18.636,24.4,8,8,0,0,0,15.178,0,47.53,47.53,0,0,1,18.637-24.4l2.212-1.476a8,8,0,0,0,0-13.312l-2.213-1.476a47.533,47.533,0,0,1-18.636-24.4,8,8,0,0,0-15.178,0,47.53,47.53,0,0,1-18.637,24.4l-2.212,1.476a8,8,0,0,0,0,13.312ZM120,41.9A63.763,63.763,0,0,0,130.618,54,63.8,63.8,0,0,0,120,66.1,63.763,63.763,0,0,0,109.382,54,63.8,63.8,0,0,0,120,41.9Z"/><path d="M43.562,112.656l2.213,1.476a47.533,47.533,0,0,1,18.636,24.4,8,8,0,0,0,15.178,0,47.53,47.53,0,0,1,18.637-24.4l2.212-1.476a8,8,0,0,0,0-13.312l-2.213-1.476a47.533,47.533,0,0,1-18.636-24.4,8,8,0,0,0-15.178,0,47.53,47.53,0,0,1-18.637,24.4l-2.212,1.476a8,8,0,0,0,0,13.312ZM72,93.9A63.763,63.763,0,0,0,82.618,106,63.8,63.8,0,0,0,72,118.1,63.763,63.763,0,0,0,61.382,106,63.8,63.8,0,0,0,72,93.9Z"/><path d="M88,320H80a8,8,0,0,0,0,16h8a8,8,0,0,0,0-16Z"/><path d="M88,384H80a8,8,0,0,0,0,16h8a8,8,0,0,0,0-16Z"/><path d="M88,448H80a8,8,0,0,0,0,16h8a8,8,0,0,0,0-16Z"/><path d="M480,392a103.426,103.426,0,0,0-8-39.989V296a8,8,0,0,0-8-8H440V254.624A24,24,0,0,0,432,208V113.3l7.589-22.768a7.992,7.992,0,0,0,.172-4.47l-8-32A8,8,0,0,0,424,48H392a8,8,0,0,0-7.761,6.06l-8,32a7.992,7.992,0,0,0,.172,4.47L384,113.3V208a24,24,0,0,0-8,46.624V288H344V221.943A56,56,0,1,0,256,176a55.614,55.614,0,0,0,21.988,44.475q.987.756,2.012,1.47V288H240V146.667l13.992-18.655A50.365,50.365,0,0,0,264,97.985a49.77,49.77,0,0,0-27.664-44.761l-8.758-4.379A8,8,0,0,0,216,56V86.111a8,8,0,1,1-16,0V56a8,8,0,0,0-11.578-7.155l-8.758,4.379A49.77,49.77,0,0,0,152,97.985a50.364,50.364,0,0,0,10.009,30.027L176,146.667V168H160a8,8,0,0,0-8-8H104a8,8,0,0,0-7.694,5.831L73.94,160.239l.008.01A7.974,7.974,0,0,0,72,160H40a8,8,0,0,0-8,8v48a8,8,0,0,0,8,8s31.7-.021,32-.055c.076-.008,24.306-5.776,24.306-5.776A8,8,0,0,0,104,224v64H48a8,8,0,0,0-8,8V488a8,8,0,0,0,8,8H464a8,8,0,0,0,8-8V432.426c0-.132-.013-.259-.02-.389A103.418,103.418,0,0,0,480,392Zm-192,0a88,88,0,1,1,88,88A88.1,88.1,0,0,1,288,392ZM56,368H274.8a104.257,104.257,0,0,0,0,48H56Zm400-42.377A104.815,104.815,0,0,0,431.363,304H456ZM417.754,64l4,16H394.246l4-16Zm-18.165,45.47L395.1,96h25.8l-4.49,13.47A8,8,0,0,0,416,112v96H400V112A8,8,0,0,0,399.589,109.47ZM384,224h48a8,8,0,0,1,0,16H384a8,8,0,0,1,0-16Zm8,32h32v32H392Zm-99.994-45.362a40.441,40.441,0,0,1-4.293-2.868A40,40,0,1,1,352,176a40.158,40.158,0,0,1-20.007,34.639A8,8,0,0,0,328,217.562V288H296V217.562A8,8,0,0,0,292.006,210.638ZM160,216h3.446A36.687,36.687,0,0,0,176,227.405V288H160Zm14.809-97.588A34.258,34.258,0,0,1,168,97.985a33.839,33.839,0,0,1,16-28.874v17a24,24,0,0,0,48,0v-17a33.839,33.839,0,0,1,16,28.874,34.258,34.258,0,0,1-6.809,20.427L225.6,139.2A8,8,0,0,0,224,144V288H192V231.942c.627.032,1.255.058,1.889.058H208a8,8,0,0,0,7.155-11.578L192,174.111V144a8.006,8.006,0,0,0-1.6-4.8ZM179.056,184l16,32h-1.167a20.832,20.832,0,0,1-18.734-11.578A8,8,0,0,0,168,200h-8V184ZM112,176h32v32H112Zm-32,2.246,16,4v19.508l-16,4ZM64,208H48V176H64Zm56,16h24v64H120ZM56,304H320.637a104.636,104.636,0,0,0-40.632,48H56Zm0,128H280.005a104.636,104.636,0,0,0,40.632,48H56Zm400,48H431.363A104.815,104.815,0,0,0,456,458.377Z"/><path d="M431.932,375.005a8.169,8.169,0,0,0-.188-.981c-.016-.064-.031-.128-.049-.192a8.018,8.018,0,0,0-.364-1.031c-.015-.032-.032-.064-.047-.1a8,8,0,0,0-.476-.891c-.034-.055-.065-.111-.1-.166a7.951,7.951,0,0,0-.64-.854c-.048-.056-.1-.108-.149-.163a8.121,8.121,0,0,0-.763-.744c-.012-.01-.021-.022-.033-.033l-.029-.024-.007,0-47.964-39.971a8,8,0,0,0-10.244,0l-47.964,39.971-.007,0-.029.024c-.012.011-.021.023-.033.033a8.121,8.121,0,0,0-.763.744c-.05.055-.1.107-.149.163a7.951,7.951,0,0,0-.64.854c-.036.055-.067.111-.1.166a8,8,0,0,0-.476.891c-.015.032-.032.064-.047.1a8.018,8.018,0,0,0-.364,1.031c-.018.064-.033.128-.049.192a8.169,8.169,0,0,0-.188.981c0,.04-.013.079-.018.12A8.143,8.143,0,0,0,320,376v64a8,8,0,0,0,8,8h96a8,8,0,0,0,8-8V376a8.143,8.143,0,0,0-.05-.875C431.945,375.084,431.937,375.045,431.932,375.005ZM376,346.414,401.9,368H350.1ZM368,432V416h16v16Zm48,0H400V408a8,8,0,0,0-8-8H360a8,8,0,0,0-8,8v24H336V384h80Z"/><path d="M303.056,199.492h17.888a8,8,0,0,0,6.929-4L336.817,180a8,8,0,0,0,0-8l-8.944-15.492a8,8,0,0,0-6.929-4H303.056a8,8,0,0,0-6.929,4L287.183,172a8,8,0,0,0,0,8l8.944,15.492A8,8,0,0,0,303.056,199.492Zm4.618-30.984h8.652L320.651,176l-4.325,7.492h-8.652L303.349,176Z"/></g></svg>
