<svg width="512" height="512" viewBox="0 0 512 512" fill="none" xmlns="http://www.w3.org/2000/svg">
<g clip-path="url(#clip0)">
<path d="M138.666 405.333H95.9997C90.1117 405.333 85.333 400.555 85.333 394.667C85.333 388.779 90.1117 384 95.9997 384H138.666C144.554 384 149.333 388.779 149.333 394.667C149.333 400.555 144.554 405.333 138.666 405.333Z" fill="#FF0000"/>
<path d="M485.333 405.333H458.667C452.779 405.333 448 400.555 448 394.667C448 388.779 452.779 384 458.667 384H476.48L490.859 307.371C490.667 268.16 457.173 234.667 416 234.667H345.963L312.021 384H373.333C379.221 384 384 388.779 384 394.667C384 400.555 379.221 405.333 373.333 405.333H298.667C295.424 405.333 292.352 403.861 290.325 401.323C288.299 398.805 287.531 395.477 288.256 392.32L327.04 221.653C328.149 216.768 332.459 213.333 337.451 213.333H416C468.928 213.333 512 256.405 512 309.333L495.808 396.629C494.869 401.685 490.475 405.333 485.333 405.333Z" fill="#FF0000"/>
<path d="M416 448C386.603 448 362.667 424.085 362.667 394.667C362.667 365.248 386.603 341.333 416 341.333C445.398 341.333 469.334 365.248 469.334 394.667C469.334 424.085 445.398 448 416 448ZM416 362.667C398.358 362.667 384 377.024 384 394.667C384 412.309 398.358 426.667 416 426.667C433.643 426.667 448 412.309 448 394.667C448 377.024 433.643 362.667 416 362.667Z" fill="#FF0000"/>
<path d="M181.333 448C151.936 448 128 424.085 128 394.667C128 365.248 151.936 341.333 181.333 341.333C210.731 341.333 234.667 365.248 234.667 394.667C234.667 424.085 210.731 448 181.333 448ZM181.333 362.667C163.691 362.667 149.333 377.024 149.333 394.667C149.333 412.309 163.691 426.667 181.333 426.667C198.976 426.667 213.333 412.309 213.333 394.667C213.333 377.024 198.976 362.667 181.333 362.667Z" fill="#FF0000"/>
<path d="M138.667 213.333H53.3337C47.4457 213.333 42.667 208.555 42.667 202.667C42.667 196.779 47.4457 192 53.3337 192H138.667C144.555 192 149.334 196.779 149.334 202.667C149.334 208.555 144.555 213.333 138.667 213.333Z" fill="#FF0000"/>
<path d="M138.666 277.333H31.9997C26.1117 277.333 21.333 272.555 21.333 266.667C21.333 260.779 26.1117 256 31.9997 256H138.666C144.554 256 149.333 260.779 149.333 266.667C149.333 272.555 144.554 277.333 138.666 277.333Z" fill="#FF0000"/>
<path d="M138.667 341.333H10.6667C4.77867 341.333 0 336.555 0 330.667C0 324.779 4.77867 320 10.6667 320H138.667C144.555 320 149.333 324.779 149.333 330.667C149.333 336.555 144.555 341.333 138.667 341.333Z" fill="#FF0000"/>
<path d="M298.666 405.333H224C218.112 405.333 213.333 400.555 213.333 394.667C213.333 388.779 218.112 384 224 384H290.154L338.624 170.667H95.9997C90.1117 170.667 85.333 165.888 85.333 160C85.333 154.112 90.1117 149.333 95.9997 149.333H352C355.242 149.333 358.314 150.805 360.341 153.344C362.368 155.861 363.136 159.189 362.41 162.347L309.077 397.013C307.968 401.899 303.637 405.333 298.666 405.333Z" fill="#FF0000"/>
</g>
<defs>
<clipPath id="clip0">
<rect width="512" height="512" fill="white"/>
</clipPath>
</defs>
</svg>
